<svg xmlns="http://www.w3.org/2000/svg" xmlns:xlink="http://www.w3.org/1999/xlink" width="240" zoomAndPan="magnify" viewBox="0 0 180 95.999999" height="128" preserveAspectRatio="xMidYMid meet" version="1.0"><defs><filter x="0%" y="0%" width="100%" height="100%" id="5a968b4a53"><feColorMatrix values="0 0 0 0 1 0 0 0 0 1 0 0 0 0 1 0 0 0 1 0" color-interpolation-filters="sRGB"/></filter><mask id="299a6fa432"><g filter="url(#5a968b4a53)"><rect x="-18" width="216" fill="#000000" y="-9.6" height="115.199999" fill-opacity="0.37"/></g></mask><clipPath id="96d1789bd1"><path d="M 0 0 L 180 0 L 180 96 L 0 96 Z M 0 0 " clip-rule="nonzero"/></clipPath><clipPath id="27d1b03e6c"><rect x="0" width="180" y="0" height="96"/></clipPath><clipPath id="8044f38684"><rect x="0" width="180" y="0" height="96"/></clipPath><mask id="0846e760c7"><g filter="url(#5a968b4a53)"><rect x="-18" width="216" fill="#000000" y="-9.6" height="115.199999" fill-opacity="0.61"/></g></mask><clipPath id="c19c64b8de"><path d="M 2.046875 1.800781 L 70 1.800781 L 70 40 L 2.046875 40 Z M 2.046875 1.800781 " clip-rule="nonzero"/></clipPath><clipPath id="91ddab7f27"><rect x="0" width="72" y="0" height="42"/></clipPath></defs><g mask="url(#299a6fa432)"><g transform="matrix(1, 0, 0, 1, -0, -0.000000000000008101)"><g clip-path="url(#8044f38684)"><g transform="matrix(1, 0, 0, 1, -0, -0.000000000000008101)"><g clip-path="url(#27d1b03e6c)"><g clip-path="url(#96d1789bd1)"><rect x="-65.52" width="311.04" fill="#1e1e1e" y="-34.944" height="165.887998" fill-opacity="1"/></g></g></g></g></g></g><g mask="url(#0846e760c7)"><g transform="matrix(1, 0, 0, 1, 54, 27)"><g clip-path="url(#91ddab7f27)"><g clip-path="url(#c19c64b8de)"><path fill="#1e1e1e" d="M 35.882812 1.964844 C 22.929688 1.964844 11.011719 7.871094 3.183594 18.160156 C 1.960938 19.765625 1.960938 22.003906 3.179688 23.601562 C 11.011719 33.898438 22.929688 39.800781 35.882812 39.800781 C 48.832031 39.800781 60.75 33.898438 68.582031 23.605469 C 69.804688 22.003906 69.804688 19.765625 68.582031 18.164062 C 60.75 7.867188 48.832031 1.964844 35.882812 1.964844 Z M 65.015625 20.890625 C 58.039062 30.058594 47.421875 35.320312 35.882812 35.320312 C 24.34375 35.320312 13.726562 30.058594 6.75 20.875 C 13.726562 11.707031 24.34375 6.445312 35.882812 6.445312 C 47.421875 6.445312 58.039062 11.707031 65.015625 20.875 C 65.015625 20.878906 65.015625 20.890625 65.015625 20.890625 Z M 65.015625 20.890625 " fill-opacity="1" fill-rule="nonzero"/></g><path fill="#1e1e1e" d="M 35.882812 7.765625 C 28.648438 7.765625 22.765625 13.648438 22.765625 20.882812 C 22.765625 28.117188 28.648438 34 35.882812 34 C 43.117188 34 49 28.117188 49 20.882812 C 49 13.648438 43.117188 7.765625 35.882812 7.765625 Z M 35.882812 29.519531 C 31.121094 29.519531 27.246094 25.644531 27.246094 20.882812 C 27.246094 16.121094 31.121094 12.246094 35.882812 12.246094 C 40.644531 12.246094 44.519531 16.121094 44.519531 20.882812 C 44.519531 25.644531 40.644531 29.519531 35.882812 29.519531 Z M 35.882812 29.519531 " fill-opacity="1" fill-rule="nonzero"/></g></g></g></svg>