<svg xmlns="http://www.w3.org/2000/svg" xmlns:xlink="http://www.w3.org/1999/xlink" width="800" zoomAndPan="magnify" viewBox="0 0 600 599.999999" height="800" preserveAspectRatio="xMidYMid meet" version="1.0"><defs><clipPath id="ce8ab5206d"><path d="M 161 200 L 233 200 L 233 367.3125 L 161 367.3125 Z M 161 200 " clip-rule="nonzero"/></clipPath><clipPath id="cac206c35e"><path d="M 37.089844 1 L 562.839844 1 L 562.839844 599 L 37.089844 599 Z M 37.089844 1 " clip-rule="nonzero"/></clipPath></defs><path fill="#000000" d="M 137.269531 343.652344 C 133.71875 343.652344 131.351562 342.46875 128.984375 340.101562 L 81.664062 292.777344 C 76.929688 288.046875 76.929688 280.949219 81.664062 276.214844 L 128.984375 228.890625 C 133.71875 224.160156 140.816406 224.160156 145.550781 228.890625 C 150.28125 233.625 150.28125 240.722656 145.550781 245.453125 L 106.507812 284.496094 L 145.550781 323.539062 C 150.28125 328.273438 150.28125 335.371094 145.550781 340.101562 C 143.183594 342.46875 140.816406 343.652344 137.269531 343.652344 Z M 137.269531 343.652344 " fill-opacity="1" fill-rule="nonzero"/><path fill="#000000" d="M 255.578125 343.652344 C 252.027344 343.652344 249.664062 342.46875 247.296875 340.101562 C 242.5625 335.371094 242.5625 328.273438 247.296875 323.539062 L 286.339844 284.496094 L 247.296875 245.453125 C 242.5625 240.722656 242.5625 233.625 247.296875 228.890625 C 252.027344 224.160156 259.128906 224.160156 263.859375 228.890625 L 311.183594 276.214844 C 315.914062 280.949219 315.914062 288.046875 311.183594 292.777344 L 263.859375 340.101562 C 261.492188 342.46875 259.128906 343.652344 255.578125 343.652344 Z M 255.578125 343.652344 " fill-opacity="1" fill-rule="nonzero"/><g clip-path="url(#ce8ab5206d)"><path fill="#000000" d="M 172.761719 367.3125 C 171.578125 367.3125 170.394531 367.3125 169.210938 366.132812 C 163.296875 363.765625 159.746094 357.847656 162.113281 350.75 L 209.4375 208.777344 C 211.804688 202.863281 217.71875 199.3125 224.816406 201.679688 C 230.734375 204.046875 234.28125 209.960938 231.914062 217.058594 L 184.589844 359.03125 C 182.226562 363.765625 177.492188 367.3125 172.761719 367.3125 Z M 172.761719 367.3125 " fill-opacity="1" fill-rule="nonzero"/></g><g clip-path="url(#cac206c35e)"><path fill="#e44d26" d="M 84.820312 538.703125 L 36.941406 1.6875 L 562.988281 1.6875 L 515.074219 538.628906 L 299.628906 598.332031 Z M 84.820312 538.703125 " fill-opacity="1" fill-rule="nonzero"/></g><path fill="#f16529" d="M 474.042969 504.429688 L 515 45.597656 L 299.964844 45.597656 L 299.964844 552.707031 Z M 474.042969 504.429688 " fill-opacity="1" fill-rule="nonzero"/><path fill="#ebebeb" d="M 299.742188 111.453125 L 134.820312 111.453125 L 152.589844 310.628906 L 299.964844 310.628906 L 299.964844 244.769531 L 212.824219 244.769531 L 206.804688 177.328125 L 299.964844 177.328125 L 299.964844 111.453125 Z M 299.964844 415.601562 L 299.6875 415.679688 L 226.34375 395.875 L 221.679688 343.351562 L 155.535156 343.351562 L 164.761719 446.761719 L 299.667969 484.050781 L 299.964844 483.957031 Z M 299.964844 415.601562 " fill-opacity="1" fill-rule="nonzero"/><path fill="#ffffff" d="M 299.742188 310.628906 L 380.84375 310.628906 L 373.382812 396.023438 L 299.929688 415.84375 L 299.929688 484.367188 L 434.945312 446.945312 L 453.03125 244.734375 L 299.964844 244.734375 Z M 463.136719 129.132812 L 464.699219 111.453125 L 299.703125 111.453125 L 299.703125 177.3125 L 458.773438 177.3125 L 460.078125 162.507812 Z M 463.136719 129.132812 " fill-opacity="1" fill-rule="nonzero"/></svg>