<svg xmlns="http://www.w3.org/2000/svg" xmlns:xlink="http://www.w3.org/1999/xlink" width="800" zoomAndPan="magnify" viewBox="0 0 600 599.999999" height="800" preserveAspectRatio="xMidYMid meet" version="1.0"><defs><clipPath id="12ee9aa98a"><path d="M 115 38 L 188 38 L 188 204.710938 L 115 204.710938 Z M 115 38 " clip-rule="nonzero"/></clipPath></defs><path fill="#000000" d="M 91.738281 181.050781 C 88.191406 181.050781 85.824219 179.867188 83.457031 177.5 L 36.132812 130.175781 C 31.402344 125.445312 31.402344 118.347656 36.132812 113.613281 L 83.457031 66.289062 C 88.191406 61.558594 95.289062 61.558594 100.019531 66.289062 C 104.753906 71.023438 104.753906 78.121094 100.019531 82.851562 L 60.980469 121.894531 L 100.019531 160.9375 C 104.753906 165.671875 104.753906 172.769531 100.019531 177.5 C 97.65625 179.867188 95.289062 181.050781 91.738281 181.050781 Z M 91.738281 181.050781 " fill-opacity="1" fill-rule="nonzero"/><path fill="#000000" d="M 210.050781 181.050781 C 206.5 181.050781 204.132812 179.867188 201.765625 177.5 C 197.035156 172.769531 197.035156 165.671875 201.765625 160.9375 L 240.808594 121.894531 L 201.765625 82.851562 C 197.035156 78.121094 197.035156 71.023438 201.765625 66.289062 C 206.5 61.558594 213.597656 61.558594 218.332031 66.289062 L 265.65625 113.613281 C 270.386719 118.347656 270.386719 125.445312 265.65625 130.175781 L 218.332031 177.5 C 215.964844 179.867188 213.597656 181.050781 210.050781 181.050781 Z M 210.050781 181.050781 " fill-opacity="1" fill-rule="nonzero"/><g clip-path="url(#12ee9aa98a)"><path fill="#000000" d="M 127.230469 204.710938 C 126.050781 204.710938 124.867188 204.710938 123.683594 203.53125 C 117.765625 201.164062 114.21875 195.246094 116.585938 188.148438 L 163.910156 46.175781 C 166.273438 40.261719 172.191406 36.710938 179.289062 39.078125 C 185.203125 41.445312 188.753906 47.359375 186.386719 54.457031 L 139.0625 196.429688 C 136.695312 201.164062 131.964844 204.710938 127.230469 204.710938 Z M 127.230469 204.710938 " fill-opacity="1" fill-rule="nonzero"/></g><path fill="#eee400" d="M 459.839844 552.960938 C 407.496094 552.960938 373.644531 528 357.144531 495.359375 L 403.042969 468.765625 C 415.140625 488.519531 430.824219 503.003906 458.628906 503.003906 C 481.96875 503.003906 496.871094 491.328125 496.871094 475.210938 C 496.871094 450.984375 464.53125 441.492188 441.707031 431.722656 C 401.027344 414.40625 374.027344 392.652344 374.027344 346.726562 C 374.027344 304.449219 406.246094 272.242188 456.625 272.242188 C 492.445312 272.242188 518.242188 284.722656 536.746094 317.328125 L 492.851562 345.527344 C 483.191406 328.210938 472.726562 321.371094 456.613281 321.371094 C 440.085938 321.371094 429.613281 331.847656 429.613281 345.527344 C 429.613281 362.445312 440.074219 369.285156 464.257812 379.761719 C 514.921875 401.46875 553.261719 418.546875 553.261719 474.40625 C 553.285156 525.179688 513.421875 552.960938 459.839844 552.960938 Z M 330 467.976562 C 330 526.378906 294.023438 557.257812 244.078125 557.257812 C 198.960938 557.257812 171.9375 540 158.640625 510 L 157.859375 510 L 203.722656 477.9375 C 212.578125 493.621094 220.558594 504.757812 239.878906 504.757812 C 258.421875 504.757812 270 495.371094 270 467.195312 L 270 270 L 330 270 Z M 0 600 L 600 600 L 600 0 L 0 0 Z M 0 600 " fill-opacity="1" fill-rule="evenodd"/></svg>