<svg xmlns="http://www.w3.org/2000/svg" xmlns:xlink="http://www.w3.org/1999/xlink" width="800" zoomAndPan="magnify" viewBox="0 0 600 599.999999" height="800" preserveAspectRatio="xMidYMid meet" version="1.0"><defs><clipPath id="3356bc2531"><path d="M 283.078125 286 L 300 286 L 300 314 L 283.078125 314 Z M 283.078125 286 " clip-rule="nonzero"/></clipPath><clipPath id="b88abb75a9"><path d="M 321 286 L 337.828125 286 L 337.828125 314 L 321 314 Z M 321 286 " clip-rule="nonzero"/></clipPath><clipPath id="751595fd6b"><path d="M 302 281 L 319 281 L 319 319.179688 L 302 319.179688 Z M 302 281 " clip-rule="nonzero"/></clipPath><clipPath id="aae348d5ce"><path d="M 0 19.089844 L 600 19.089844 L 600 580.839844 L 0 580.839844 Z M 0 19.089844 " clip-rule="nonzero"/></clipPath></defs><g clip-path="url(#3356bc2531)"><path fill="#000000" d="M 296.960938 313.792969 C 296.152344 313.792969 295.613281 313.523438 295.070312 312.984375 L 284.277344 302.210938 C 283.199219 301.132812 283.199219 299.519531 284.277344 298.441406 L 295.070312 287.664062 C 296.152344 286.589844 297.769531 286.589844 298.851562 287.664062 C 299.929688 288.742188 299.929688 290.359375 298.851562 291.4375 L 289.945312 300.324219 L 298.851562 309.214844 C 299.929688 310.292969 299.929688 311.910156 298.851562 312.984375 C 298.308594 313.523438 297.769531 313.792969 296.960938 313.792969 Z M 296.960938 313.792969 " fill-opacity="1" fill-rule="nonzero"/></g><g clip-path="url(#b88abb75a9)"><path fill="#000000" d="M 323.949219 313.792969 C 323.136719 313.792969 322.597656 313.523438 322.058594 312.984375 C 320.980469 311.910156 320.980469 310.292969 322.058594 309.214844 L 330.964844 300.324219 L 322.058594 291.4375 C 320.980469 290.359375 320.980469 288.742188 322.058594 287.664062 C 323.136719 286.589844 324.757812 286.589844 325.835938 287.664062 L 336.632812 298.441406 C 337.710938 299.519531 337.710938 301.132812 336.632812 302.210938 L 325.835938 312.984375 C 325.296875 313.523438 324.757812 313.792969 323.949219 313.792969 Z M 323.949219 313.792969 " fill-opacity="1" fill-rule="nonzero"/></g><g clip-path="url(#751595fd6b)"><path fill="#000000" d="M 305.058594 319.179688 C 304.789062 319.179688 304.515625 319.179688 304.246094 318.914062 C 302.898438 318.375 302.089844 317.027344 302.628906 315.410156 L 313.421875 283.085938 C 313.964844 281.738281 315.3125 280.929688 316.929688 281.46875 C 318.28125 282.007812 319.089844 283.355469 318.550781 284.972656 L 307.757812 317.296875 C 307.214844 318.375 306.136719 319.179688 305.058594 319.179688 Z M 305.058594 319.179688 " fill-opacity="1" fill-rule="nonzero"/></g><path fill="#00d8ff" d="M 353.582031 299.472656 C 353.582031 301.226562 353.496094 302.976562 353.324219 304.722656 C 353.152344 306.46875 352.894531 308.203125 352.550781 309.925781 C 352.210938 311.644531 351.785156 313.34375 351.273438 315.023438 C 350.765625 316.703125 350.175781 318.351562 349.503906 319.972656 C 348.832031 321.59375 348.082031 323.179688 347.253906 324.726562 C 346.429688 326.273438 345.527344 327.777344 344.550781 329.234375 C 343.578125 330.695312 342.53125 332.101562 341.417969 333.460938 C 340.308594 334.816406 339.128906 336.113281 337.890625 337.355469 C 336.648438 338.59375 335.347656 339.773438 333.992188 340.886719 C 332.636719 342 331.230469 343.042969 329.769531 344.015625 C 328.3125 344.992188 326.808594 345.894531 325.261719 346.71875 C 323.710938 347.546875 322.128906 348.296875 320.507812 348.96875 C 318.886719 349.640625 317.234375 350.230469 315.554688 350.738281 C 313.878906 351.25 312.175781 351.675781 310.457031 352.015625 C 308.734375 352.359375 307 352.617188 305.253906 352.789062 C 303.507812 352.960938 301.757812 353.046875 300.003906 353.046875 C 298.25 353.046875 296.496094 352.960938 294.75 352.789062 C 293.003906 352.617188 291.273438 352.359375 289.550781 352.015625 C 287.828125 351.675781 286.128906 351.25 284.449219 350.738281 C 282.769531 350.230469 281.121094 349.640625 279.5 348.96875 C 277.878906 348.296875 276.292969 347.546875 274.746094 346.71875 C 273.199219 345.894531 271.695312 344.992188 270.238281 344.015625 C 268.777344 343.042969 267.371094 342 266.011719 340.886719 C 264.65625 339.773438 263.359375 338.59375 262.117188 337.355469 C 260.875 336.113281 259.699219 334.816406 258.585938 333.460938 C 257.472656 332.101562 256.429688 330.695312 255.453125 329.234375 C 254.480469 327.777344 253.578125 326.273438 252.75 324.726562 C 251.925781 323.179688 251.175781 321.59375 250.503906 319.972656 C 249.832031 318.351562 249.242188 316.703125 248.730469 315.023438 C 248.222656 313.34375 247.796875 311.644531 247.453125 309.925781 C 247.113281 308.203125 246.855469 306.46875 246.683594 304.722656 C 246.511719 302.976562 246.425781 301.226562 246.425781 299.472656 C 246.425781 297.71875 246.511719 295.96875 246.683594 294.222656 C 246.855469 292.476562 247.113281 290.742188 247.453125 289.019531 C 247.796875 287.300781 248.222656 285.601562 248.730469 283.921875 C 249.242188 282.242188 249.832031 280.59375 250.503906 278.972656 C 251.175781 277.351562 251.925781 275.765625 252.75 274.21875 C 253.578125 272.671875 254.480469 271.167969 255.453125 269.710938 C 256.429688 268.25 257.472656 266.84375 258.585938 265.488281 C 259.699219 264.128906 260.875 262.832031 262.117188 261.589844 C 263.359375 260.351562 264.65625 259.171875 266.011719 258.0625 C 267.371094 256.949219 268.777344 255.902344 270.238281 254.929688 C 271.695312 253.953125 273.199219 253.054688 274.746094 252.226562 C 276.292969 251.398438 277.878906 250.648438 279.5 249.976562 C 281.121094 249.308594 282.769531 248.714844 284.449219 248.207031 C 286.128906 247.699219 287.828125 247.273438 289.550781 246.929688 C 291.273438 246.585938 293.003906 246.332031 294.75 246.15625 C 296.496094 245.984375 298.25 245.898438 300.003906 245.898438 C 301.757812 245.898438 303.507812 245.984375 305.253906 246.15625 C 307 246.332031 308.734375 246.585938 310.457031 246.929688 C 312.175781 247.273438 313.878906 247.699219 315.554688 248.207031 C 317.234375 248.714844 318.886719 249.308594 320.507812 249.976562 C 322.128906 250.648438 323.710938 251.398438 325.261719 252.226562 C 326.808594 253.054688 328.3125 253.953125 329.769531 254.929688 C 331.230469 255.902344 332.636719 256.949219 333.992188 258.0625 C 335.347656 259.171875 336.648438 260.351562 337.890625 261.589844 C 339.128906 262.832031 340.308594 264.128906 341.417969 265.488281 C 342.53125 266.84375 343.578125 268.25 344.550781 269.710938 C 345.527344 271.167969 346.429688 272.671875 347.253906 274.21875 C 348.082031 275.765625 348.832031 277.351562 349.503906 278.972656 C 350.175781 280.59375 350.765625 282.242188 351.273438 283.921875 C 351.785156 285.601562 352.210938 287.300781 352.550781 289.019531 C 352.894531 290.742188 353.152344 292.476562 353.324219 294.222656 C 353.496094 295.96875 353.582031 297.71875 353.582031 299.472656 Z M 353.582031 299.472656 " fill-opacity="1" fill-rule="nonzero"/><path stroke-linecap="butt" transform="matrix(1.068, 0, 0, 1.067889, 12.145126, 45.710576)" fill="none" stroke-linejoin="miter" d="M 269.530686 135.62865 C 336.884237 135.62865 399.461043 145.29653 446.639618 161.537689 C 503.485064 181.107554 538.432833 210.769618 538.432833 237.629715 C 538.432833 265.62011 501.392952 297.13308 440.352311 317.357713 C 394.201505 332.647813 333.471754 340.629392 269.530686 340.629392 C 203.976644 340.629392 141.90092 333.137974 95.230743 317.189449 C 36.18346 297.008711 0.621224 265.086054 0.621224 237.629715 C 0.621224 210.989093 33.992595 181.553821 90.03704 162.013218 C 137.391176 145.505031 201.507806 135.62865 269.527029 135.62865 Z M 269.530686 135.62865 " stroke="#00d8ff" stroke-width="24" stroke-opacity="1" stroke-miterlimit="4"/><g clip-path="url(#aae348d5ce)"><path stroke-linecap="butt" transform="matrix(1.068, 0, 0, 1.067889, 12.145126, 45.710576)" fill="none" stroke-linejoin="miter" d="M 180.740309 186.919987 C 214.389653 128.572525 254.01907 79.201595 291.658787 46.441275 C 337.008593 6.975989 380.160219 -8.478718 403.429471 4.938528 C 427.678944 18.919094 436.471664 66.75004 423.498379 129.735743 C 413.696179 177.35453 390.262337 233.946191 358.321063 289.338055 C 325.571474 346.123586 288.070743 396.156599 250.939424 428.605997 C 203.962014 469.673451 158.542715 484.535575 134.761407 470.818379 C 111.682346 457.521844 102.856709 413.901163 113.928074 355.59028 C 123.280397 306.321772 146.758129 245.849059 180.725679 186.930961 Z M 180.740309 186.919987 " stroke="#00d8ff" stroke-width="24" stroke-opacity="1" stroke-miterlimit="4"/><path stroke-linecap="butt" transform="matrix(1.068, 0, 0, 1.067889, 12.145126, 45.710576)" fill="none" stroke-linejoin="miter" d="M 180.820775 289.480714 C 147.079993 231.199094 124.099686 172.200522 114.509623 123.228306 C 102.966435 64.229734 111.1264 19.12028 134.373708 5.659138 C 158.597578 -8.365322 204.430179 7.905101 252.515822 50.600328 C 288.871744 82.881462 326.20057 131.436675 358.233282 186.770013 C 391.077968 243.504333 415.693194 300.981211 425.268627 349.34987 C 437.386048 410.561483 427.580191 457.331633 403.81717 471.089065 C 380.760055 484.436811 338.566704 470.306271 293.575337 431.590858 C 255.562551 398.881749 214.894393 348.336627 180.817117 289.46974 Z M 180.820775 289.480714 " stroke="#00d8ff" stroke-width="24" stroke-opacity="1" stroke-miterlimit="4"/></g></svg>