<svg id="visual" viewBox="0 0 900 450" width="900" height="450" xmlns="http://www.w3.org/2000/svg" xmlns:xlink="http://www.w3.org/1999/xlink" version="1.1"><rect x="0" y="0" width="900" height="450" fill="#121212"></rect><defs><linearGradient id="grad1_0" x1="50%" y1="100%" x2="100%" y2="0%"><stop offset="10%" stop-color="#121212" stop-opacity="1"></stop><stop offset="90%" stop-color="#121212" stop-opacity="1"></stop></linearGradient></defs><defs><linearGradient id="grad2_0" x1="0%" y1="100%" x2="50%" y2="0%"><stop offset="10%" stop-color="#121212" stop-opacity="1"></stop><stop offset="90%" stop-color="#121212" stop-opacity="1"></stop></linearGradient></defs><g transform="translate(900, 450)"><path d="M-202.5 0C-201.1 -17.8 -199.6 -35.7 -193.2 -51.8C-186.7 -67.8 -175.3 -82.2 -164.5 -95C-153.8 -107.8 -143.8 -119.1 -134.4 -134.4C-124.9 -149.6 -116 -168.7 -101.3 -175.4C-86.5 -182 -65.7 -176.3 -47.9 -178.7C-30 -181.1 -15 -191.8 0 -202.5L0 0Z" fill="#03dac6"></path></g><g transform="translate(0, 0)"><path d="M202.5 0C198.9 17.6 195.2 35.2 186.4 50C177.6 64.7 163.6 76.7 152.4 88C141.2 99.3 132.8 109.9 125.9 125.9C118.9 141.9 113.5 163.3 101.3 175.4C89 187.5 69.8 190.2 51.8 193.2C33.7 196.2 16.9 199.3 0 202.5L0 0Z" fill="#03dac6"></path></g></svg>